<svg xmlns="http://www.w3.org/2000/svg" width="60" height="59.767" viewBox="0 0 60 59.767">
  <g id="Logo" transform="translate(-350.079 -227.047)">
    <path id="Tracciato_1" data-name="Tracciato 1" d="M367.8,262.492V252.052c-1.36.184-3.014.441-5,.7-2.021.257-4.337.588-7.021.919v8.822h-5.7V236.209h5.7v11.763l5.036-.7c1.985-.257,4.3-.588,6.984-.919V236.209h5.661v26.283Z" transform="translate(0 -5.283)" fill="#007262"/>
    <path id="Tracciato_2" data-name="Tracciato 2" d="M429.962,253.293l-2.132-5.183-10.4-1.176-2.573,6.4h-5.771l4.411-10.954c1.764-4.375,3.823-9.484,6.139-15.329h5.4l10.55,26.246Zm-5.587-13.748-2.022-5.072c-.331.772-.772,1.948-1.4,3.492l-1.838,4.668c.624.074,1.617.183,2.9.294s2.61.221,3.9.4Z" transform="translate(-34.026 0)" fill="#007262"/>
    <path id="Tracciato_3" data-name="Tracciato 3" d="M397.482,320.779v9.08h-5.624v-26.32H401.93a8.507,8.507,0,0,1,3.271.625,7.869,7.869,0,0,1,2.72,1.875,8.853,8.853,0,0,1,1.8,2.794,8.693,8.693,0,0,1,.588,3.309,9.207,9.207,0,0,1-.331,2.536,7.727,7.727,0,0,1-1.029,2.242,8.346,8.346,0,0,1-1.728,1.875,11.346,11.346,0,0,1-2.463,1.4l2.867,2.94c1.14,1.176,2.5,2.537,4.007,4.117l-1.618,1.544-2.279,2.131-4.006-4.227-5.551-5.918Zm-.037-5.477h4.448a2.874,2.874,0,0,0,1.139-.22,2.369,2.369,0,0,0,.919-.7,3.9,3.9,0,0,0,.661-.993,2.688,2.688,0,0,0,.221-1.1,2.864,2.864,0,0,0-.221-1.139,3.878,3.878,0,0,0-.661-.993,2.365,2.365,0,0,0-.919-.7,2.865,2.865,0,0,0-1.139-.22h-4.448Z" transform="translate(-24.093 -44.11)" fill="#007262"/>
    <path id="Tracciato_4" data-name="Tracciato 4" d="M446.282,320.512a9.447,9.447,0,0,1-3.456-2.279,9.146,9.146,0,0,1-2.206-3.639,14.656,14.656,0,0,1-.735-4.779V294.377h5.772v15.439c0,.4,0,.809.036,1.213a8.518,8.518,0,0,0,.184,1.03,4.594,4.594,0,0,0,.257.845,6.425,6.425,0,0,0,.331.7,3.591,3.591,0,0,0,.846.956,2.95,2.95,0,0,0,1.066.552c.4.11.809.221,1.213.294.4.036.845.073,1.286.073a9.728,9.728,0,0,0,1.948-.184,3.732,3.732,0,0,0,1.4-.588,4.2,4.2,0,0,0,.919-.882,3.207,3.207,0,0,0,.588-1.1,3.9,3.9,0,0,0,.184-.7l.11-.7a4.969,4.969,0,0,0,.036-.735,5.414,5.414,0,0,0,.037-.772V294.377h5.771v15.439a14.656,14.656,0,0,1-.735,4.779,9.149,9.149,0,0,1-2.205,3.639,9.447,9.447,0,0,1-3.456,2.279,14.722,14.722,0,0,1-9.189,0Z" transform="translate(-51.788 -38.827)" fill="#007262"/>
    <path id="Tracciato_5" data-name="Tracciato 5" d="M370.342,308.58c0,.637-.782,1.114-1.012,1.668-.238.575-.031,1.463-.464,1.9s-1.322.226-1.9.464c-.554.23-1.031,1.013-1.668,1.013s-1.114-.783-1.668-1.013c-.574-.238-1.463-.031-1.9-.464s-.226-1.321-.464-1.9c-.229-.554-1.012-1.031-1.012-1.668s.783-1.114,1.012-1.668c.238-.575.031-1.463.464-1.9s1.321-.226,1.9-.464c.554-.23,1.031-1.013,1.668-1.013s1.114.783,1.668,1.013c.574.238,1.463.031,1.9.464s.226,1.322.464,1.9C369.56,307.466,370.342,307.943,370.342,308.58Z" transform="translate(-5.872 -44.11)" fill="#eaa1d4"/>
  </g>
</svg>
