<?xml version="1.0" encoding="utf-8"?>
<!-- Generator: Adobe Illustrator 26.1.0, SVG Export Plug-In . SVG Version: 6.00 Build 0)  -->
<svg version="1.1" id="Livello_1" xmlns="http://www.w3.org/2000/svg" xmlns:xlink="http://www.w3.org/1999/xlink" x="0px" y="0px"
	 width="60px" height="59.8px" viewBox="0 0 60 59.8" style="enable-background:new 0 0 60 59.8;" xml:space="preserve">
<style type="text/css">
	.st0{fill:#A32035;}
	.st1{fill:#76BC21;}
</style>
<g>
	<path class="st0" d="M19.9,30.3v-8.9c-1.2,0.2-2.6,0.4-4.3,0.6c-1.7,0.2-3.7,0.5-6,0.8v7.6H4.7V19V9.2V7.8h4.9v10.1l4.3-0.6
		c1.7-0.2,3.7-0.5,6-0.8V7.8h4.8v22.5H19.9z"/>
	<path class="st0" d="M33.5,26.9c-1.1-0.4-2.1-1.1-3-2c-0.8-0.8-1.5-1.9-1.9-3.1c-0.4-1.2-0.6-2.5-0.6-4.1v-6.6V6.2V4.5H33v13.2
		c0,0.3,0,0.7,0,1c0,0.3,0.1,0.6,0.2,0.9c0.1,0.3,0.1,0.5,0.2,0.7c0.1,0.2,0.2,0.4,0.3,0.6c0.2,0.3,0.4,0.6,0.7,0.8
		c0.3,0.2,0.6,0.4,0.9,0.5c0.3,0.1,0.7,0.2,1,0.3c0.3,0,0.7,0.1,1.1,0.1c0.7,0,1.2-0.1,1.7-0.2c0.5-0.1,0.9-0.3,1.2-0.5
		c0.3-0.2,0.6-0.5,0.8-0.8s0.4-0.6,0.5-0.9c0.1-0.2,0.1-0.4,0.2-0.6l0.1-0.6c0-0.2,0-0.4,0-0.6c0-0.2,0-0.4,0-0.7V4.5h4.9v13.2
		c0,1.5-0.2,2.9-0.6,4.1c-0.4,1.2-1,2.3-1.9,3.1c-0.8,0.8-1.8,1.5-3,2c-1.2,0.4-2.5,0.6-3.9,0.6S34.7,27.3,33.5,26.9z"/>
	<path class="st0" d="M23.2,54.9c-1-0.2-1.9-0.6-2.8-1.1c-0.8-0.5-1.6-1.1-2.4-1.8c-0.7-0.7-1.3-1.4-1.8-2.3
		c-0.3-0.4-0.5-0.9-0.7-1.4c-0.2-0.5-0.4-1-0.6-1.5c-0.2-0.5-0.3-1.1-0.3-1.6c-0.1-0.5-0.1-1.1-0.1-1.6c0-0.6,0-1.1,0.1-1.7
		c0.1-0.5,0.2-1.1,0.3-1.6c0.2-0.5,0.3-1,0.5-1.5c0.2-0.5,0.5-0.9,0.8-1.4c0.5-0.8,1.1-1.6,1.8-2.3c0.7-0.7,1.5-1.3,2.4-1.8
		c0.9-0.5,1.8-0.9,2.8-1.1c1-0.3,2-0.4,3-0.4c0.7,0,1.4,0.1,2.1,0.2c0.7,0.1,1.4,0.3,2.1,0.6c0.7,0.3,1.3,0.6,1.9,0.9
		c0.6,0.4,1.2,0.8,1.7,1.3c0.3,0.3,0.6,0.6,0.7,0.7l-3.6,3.5l-0.6-0.6c-0.3-0.3-0.6-0.5-1-0.7c-0.3-0.2-0.7-0.4-1.1-0.5
		c-0.4-0.2-0.8-0.3-1.2-0.3c-0.4-0.1-0.8-0.1-1.2-0.1c-0.9,0-1.8,0.2-2.6,0.5c-0.8,0.3-1.5,0.8-2.2,1.5c-0.7,0.7-1.1,1.4-1.5,2.2
		c-0.3,0.8-0.5,1.7-0.5,2.6s0.2,1.8,0.5,2.6c0.3,0.8,0.8,1.5,1.5,2.2c0.7,0.7,1.4,1.1,2.2,1.5s1.7,0.5,2.6,0.5c0.4,0,0.8,0,1.3-0.1
		s0.8-0.1,1.2-0.2c0.4-0.1,0.7-0.2,1-0.4c0.3-0.2,0.6-0.3,0.8-0.5v-2.3h-5.4v-4.6h10.1V51l-0.1,0.1l-0.1,0.1
		c-0.2,0.3-0.5,0.6-0.8,0.8s-0.6,0.5-0.8,0.7l-0.9,0.6c-0.3,0.2-0.6,0.4-1,0.6c-0.4,0.2-0.8,0.4-1.3,0.6c-0.4,0.2-0.8,0.3-1.3,0.4
		c-0.5,0.1-0.9,0.2-1.4,0.3c-0.5,0-0.9,0.1-1.4,0.1C25.2,55.3,24.2,55.1,23.2,54.9z"/>
	<path class="st0" d="M45.2,51.7c-1-0.2-1.9-0.6-2.8-1.1c-0.8-0.5-1.6-1.1-2.4-1.8c-0.7-0.7-1.3-1.4-1.8-2.3
		c-0.3-0.4-0.5-0.9-0.7-1.4c-0.2-0.5-0.4-1-0.6-1.5c-0.2-0.5-0.3-1.1-0.3-1.6c-0.1-0.5-0.1-1.1-0.1-1.6c0-0.6,0-1.1,0.1-1.7
		c0.1-0.5,0.2-1.1,0.3-1.6c0.2-0.5,0.3-1,0.6-1.5c0.2-0.5,0.4-0.9,0.7-1.4c0.5-0.8,1.1-1.6,1.8-2.3c0.7-0.7,1.5-1.3,2.4-1.8
		c0.9-0.5,1.8-0.9,2.8-1.1c1-0.3,2-0.4,3-0.4c1,0,2,0.1,3,0.4c1,0.3,1.9,0.6,2.8,1.1c0.9,0.5,1.7,1.1,2.4,1.8
		c0.7,0.7,1.3,1.4,1.8,2.3c0.3,0.5,0.5,0.9,0.7,1.4c0.2,0.5,0.4,1,0.6,1.5c0.2,0.5,0.3,1.1,0.3,1.6c0.1,0.5,0.1,1.1,0.1,1.7
		c0,1-0.2,2-0.4,3c-0.3,1-0.6,1.9-1.1,2.8c-0.5,0.8-1.1,1.6-1.8,2.4c-0.7,0.7-1.4,1.3-2.3,1.8c-0.5,0.3-0.9,0.5-1.4,0.7
		c-0.5,0.2-1,0.4-1.5,0.6c-0.5,0.2-1,0.3-1.6,0.3c-0.5,0.1-1.1,0.1-1.7,0.1C47.2,52.1,46.2,52,45.2,51.7z M46.6,33.8
		C46,34,45.5,34.2,45,34.5s-0.9,0.6-1.4,1c-0.4,0.4-0.8,0.8-1.1,1.3l-0.4,0.8c-0.1,0.3-0.2,0.6-0.3,0.9c-0.1,0.3-0.2,0.6-0.2,0.9
		c0,0.3-0.1,0.6-0.1,1s0,0.7,0.1,1c0.1,0.3,0.1,0.6,0.2,0.9c0.1,0.3,0.2,0.6,0.3,0.8l0.4,0.8c0.3,0.5,0.7,0.9,1.1,1.3
		c0.4,0.4,0.8,0.8,1.4,1s1,0.5,1.6,0.7c0.5,0.2,1.1,0.2,1.7,0.2c0.3,0,0.7,0,0.9-0.1c0.3-0.1,0.6-0.1,0.9-0.2s0.6-0.2,0.8-0.3
		c0.3-0.1,0.5-0.3,0.8-0.4c0.5-0.3,0.9-0.7,1.3-1.1c0.4-0.4,0.7-0.9,1-1.4c0.3-0.5,0.5-1.1,0.7-1.6c0.2-0.6,0.2-1.1,0.2-1.7
		c0-0.3,0-0.7-0.1-1s-0.1-0.6-0.2-0.9c-0.1-0.3-0.2-0.6-0.3-0.9c-0.1-0.3-0.3-0.5-0.4-0.8c-0.3-0.5-0.6-0.9-1-1.3
		c-0.4-0.4-0.8-0.8-1.4-1c-0.5-0.3-1-0.5-1.6-0.7c-0.5-0.2-1.1-0.2-1.7-0.2S47.1,33.6,46.6,33.8z"/>
	<path class="st1" d="M3,36v-1.4c0-0.8-0.7-1.5-1.5-1.5S0,33.8,0,34.6V36c0,2.6,2.1,4.8,4.7,4.9v7c0,0.8,0.7,1.5,1.5,1.5
		s1.5-0.7,1.5-1.5v-3.2c2.6-0.4,4.6-2.6,4.6-5.3c0-0.8-0.7-1.5-1.5-1.5c-0.8,0-1.5,0.7-1.5,1.5c0,1-0.7,1.9-1.6,2.2V34
		c0-0.8-0.7-1.5-1.5-1.5S4.7,33.2,4.7,34v3.9C3.8,37.8,3,37,3,36z"/>
</g>
</svg>
